ply
format ascii 1.0
comment Created by 3D Reconstruction Pipeline
comment Sparse point cloud from stereo pair
element vertex 153
property float x
property float y
property float z
property uchar red
property uchar green
property uchar blue
end_header
0.725853 2.462842 20.049303 248 248 240
0.733211 2.479812 20.086840 224 221 214
0.809375 2.266561 21.966171 255 247 234
-5.666409 13.254185 86.127304 141 141 141
0.754089 2.415229 20.259586 93 88 82
-8.816396 18.538580 121.788795 107 107 105
0.815250 2.387586 21.667412 249 241 230
0.762770 2.515152 20.104399 255 254 248
-8.207933 16.993891 103.598663 216 215 213
-8.207933 16.993891 103.598663 216 215 213
0.829343 2.218634 21.671402 167 160 150
-9.919003 19.705898 121.347374 224 219 216
-8.992463 18.164343 109.855530 179 178 176
0.784509 2.501077 20.199677 60 60 52
0.786089 2.477041 20.237373 255 255 250
0.837925 2.383868 21.531187 255 254 243
-9.263318 18.356836 111.879936 192 187 183
1.722918 1.425305 15.834350 254 255 250
-15.227870 29.094538 179.187988 97 92 88
0.833212 2.362512 21.214209 243 235 224
0.825685 2.280081 20.892889 242 234 223
0.825685 2.280081 20.892889 242 234 223
0.845420 2.169194 21.308054 255 253 243
0.834555 2.295455 20.819691 124 116 105
0.806249 2.430293 19.784800 221 222 216
0.875230 -1.639540 20.800562 10 4 4
0.832002 2.436571 19.557375 3 0 0
0.901116 2.283870 21.068703 93 83 73
0.886259 2.292233 20.404524 209 201 190
1.707433 1.443554 17.126200 29 19 18
1.707433 1.443554 17.126200 29 19 18
1.353233 1.977357 13.735600 167 158 153
1.744424 1.285320 17.756496 25 14 10
0.907826 2.105485 20.149696 194 187 177
1.722814 1.485727 17.689863 11 1 0
1.708453 1.411576 17.537653 21 10 4
1.690521 1.495981 17.670252 11 1 0
1.389326 -2.592178 14.574620 86 81 75
1.390913 -2.640434 14.644067 65 62 55
1.369030 -2.585665 14.540579 73 68 62
1.358449 -2.500748 14.609790 235 230 224
1.355824 -2.631725 14.597463 141 138 133
1.412207 -2.667279 15.735295 238 231 225
1.412207 -2.667279 15.735295 238 231 225
1.310828 -2.589742 14.658880 231 226 220
1.285240 -2.709005 15.012348 38 37 35
1.285240 -2.709005 15.012348 38 37 35
0.941407 2.028355 19.645693 148 145 140
1.618213 0.415384 19.907803 49 36 28
1.471310 1.696618 19.009798 146 141 135
1.289278 2.055596 26.489141 178 173 169
1.501678 0.329564 19.599564 29 16 10
1.444729 1.734780 19.391214 30 20 18
1.390604 0.620528 19.184320 147 144 139
0.966258 2.041360 19.137554 153 148 144
0.965857 2.179242 19.118414 174 169 165
1.048730 -2.558149 18.024986 36 25 21
1.048730 -2.558149 18.024986 36 25 21
0.972671 2.007107 18.489422 8 5 0
1.169081 -0.567057 22.115665 57 38 31
0.943921 2.291984 26.814322 150 139 133
0.957299 2.230834 27.298698 219 215 206
0.720920 2.494431 20.681702 255 251 245
0.734955 2.460557 21.675194 220 211 202
0.734955 2.460557 21.675194 220 211 202
0.718940 2.476145 21.270212 255 252 243
0.759284 2.399688 22.564112 129 116 107
0.706393 2.571390 21.194702 252 249 242
0.701539 2.639323 21.145033 252 247 241
0.698550 2.616807 21.188686 72 69 62
0.926260 2.352150 28.438633 229 224 220
0.744689 2.394932 23.047203 141 134 124
0.687916 2.604214 21.485056 28 25 18
0.653904 2.409539 20.341051 241 238 229
0.665011 2.522639 21.082771 253 250 243
0.720804 2.473677 22.928820 255 250 238
-4.067597 10.996727 79.305748 20 20 18
0.662788 2.636745 21.332565 253 254 246
0.647552 2.635895 21.033390 24 9 6
0.706415 2.351136 23.165791 255 255 246
0.651274 2.410048 21.255838 150 141 132
0.645837 2.561089 21.539635 222 219 212
0.620584 2.555887 21.452574 252 249 242
0.646032 2.584890 22.479803 255 251 242
0.681696 2.459758 23.990999 255 245 239
-3.616937 9.845663 81.144989 186 181 175
-3.616937 9.845663 81.144989 186 181 175
0.606780 2.575451 22.338400 40 33 27
0.582731 2.460121 21.724907 255 254 246
-1.473003 7.000037 44.795471 255 255 246
0.555161 2.757712 23.321161 251 251 243
0.533280 2.744323 22.720886 255 254 245
0.533280 2.744323 22.720886 255 254 245
0.515043 2.695303 22.547831 255 255 248
0.526089 2.834516 24.063866 247 246 241
-0.784645 3.062858 30.255402 10 3 0
-1.076144 4.335260 42.368401 25 16 11
0.483829 2.677845 23.843391 125 118 110
0.554444 2.558549 27.457905 255 235 67
-0.903656 4.371055 41.045547 13 5 3
0.459295 2.745177 24.358578 255 252 246
0.447020 2.684565 24.060923 147 140 134
0.448680 2.746356 24.136908 133 125 122
0.500858 2.575480 28.045961 21 7 7
0.489536 2.272343 27.706207 238 233 229
-0.497224 3.853840 39.464104 42 26 13
0.483033 2.335063 28.052805 14 9 6
0.420238 2.830726 24.900856 204 196 193
-0.354016 3.981961 33.706413 8 3 0
-0.354016 3.981961 33.706413 8 3 0
-0.359821 3.522025 35.234394 17 1 0
0.434441 2.921586 25.990253 255 254 248
-0.309577 3.596405 35.628685 51 31 0
0.474470 2.553478 28.347956 154 149 146
0.456769 2.357846 28.126219 11 6 3
-0.278478 3.518125 37.442337 240 225 98
-0.261211 3.270185 35.312836 255 247 197
0.456769 2.357846 28.126219 11 6 3
0.399960 2.744227 24.460211 255 254 248
-0.235527 3.476371 33.729080 46 29 13
-0.242301 3.640795 35.276367 44 26 12
0.388774 2.849790 25.775494 39 30 23
-0.194823 3.351124 36.243420 111 105 81
-0.190795 3.350296 35.978149 112 105 79
0.426581 2.690631 29.460571 27 19 16
0.352956 2.887410 25.586599 69 62 56
0.358492 2.893050 26.241341 201 188 179
0.346189 2.844900 25.540503 54 44 35
0.346189 2.844900 25.540503 54 44 35
0.340401 2.930167 25.861115 101 94 86
0.366904 2.761229 29.926052 255 252 226
0.310975 2.950884 25.831202 254 245 236
0.023922 2.713503 31.968534 246 246 244
0.088138 3.041010 32.156277 241 222 153
0.086734 2.567938 30.957085 251 248 241
1.493263 -2.530778 13.054218 242 227 220
1.493263 -2.530778 13.054218 242 227 220
1.805911 1.387743 15.184679 249 244 240
-3.867088 2.543787 85.939774 87 78 69
-5.750190 6.851151 165.237656 230 225 219
0.772181 2.485518 20.672190 170 165 161
-10.152653 22.085491 144.013000 25 25 25
-10.152653 22.085491 144.013000 25 25 25
0.000911 2.797024 30.635019 247 242 246
-1.102159 4.301954 43.141697 215 206 199
0.824793 2.289137 19.298594 203 198 192
1.730739 1.400073 15.790943 161 160 156
-0.448468 4.080904 41.452621 154 126 61
-11.455128 22.027548 131.589844 149 148 144
2.154316 0.979099 29.866314 167 164 159
2.154316 0.979099 29.866314 167 164 159
0.799483 2.352035 21.517374 132 124 113
0.799483 2.352035 21.517374 132 124 113
